<svg width="24" height="24" viewBox="0 0 24 24" fill="#fff" xmlns="http://www.w3.org/2000/svg"><path d="M7.5 4H4.5C4.22 4 4 4.22 4 4.5V7.5C4 7.78 4.22 8 4.5 8H7.5C7.78 8 8 7.78 8 7.5V4.5C8 4.22 7.78 4 7.5 4Z"/><path d="M13.5 4H10.5C10.22 4 10 4.22 10 4.5V7.5C10 7.78 10.22 8 10.5 8H13.5C13.78 8 14 7.78 14 7.5V4.5C14 4.22 13.78 4 13.5 4Z"/><path d="M19.5 4H16.5C16.22 4 16 4.22 16 4.5V7.5C16 7.78 16.22 8 16.5 8H19.5C19.78 8 20 7.78 20 7.5V4.5C20 4.22 19.78 4 19.5 4Z"/><path d="M7.5 10H4.5C4.22 10 4 10.22 4 10.5V13.5C4 13.78 4.22 14 4.5 14H7.5C7.78 14 8 13.78 8 13.5V10.5C8 10.22 7.78 10 7.5 10Z"/><path d="M13.5 10H10.5C10.22 10 10 10.22 10 10.5V13.5C10 13.78 10.22 14 10.5 14H13.5C13.78 14 14 13.78 14 13.5V10.5C14 10.22 13.78 10 13.5 10Z"/><path d="M19.5 10H16.5C16.22 10 16 10.22 16 10.5V13.5C16 13.78 16.22 14 16.5 14H19.5C19.78 14 20 13.78 20 13.5V10.5C20 10.22 19.78 10 19.5 10Z"/><path d="M7.5 16H4.5C4.22 16 4 16.22 4 16.5V19.5C4 19.78 4.22 20 4.5 20H7.5C7.78 20 8 19.78 8 19.5V16.5C8 16.22 7.78 16 7.5 16Z"/><path d="M13.5 16H10.5C10.22 16 10 16.22 10 16.5V19.5C10 19.78 10.22 20 10.5 20H13.5C13.78 20 14 19.78 14 19.5V16.5C14 16.22 13.78 16 13.5 16Z"/><path d="M19.5 16H16.5C16.22 16 16 16.22 16 16.5V19.5C16 19.78 16.22 20 16.5 20H19.5C19.78 20 20 19.78 20 19.5V16.5C20 16.22 19.78 16 19.5 16Z"/></svg>