<svg width="24" height="24" viewBox="0 0 24 24" fill="#fff" xmlns="http://www.w3.org/2000/svg"><path d="M21.81 3.94C20.27 7.78 16.41 13 13.18 15.59L11.21 17.17C10.96 17.35 10.71 17.5 10.43 17.62C10.43 17.44 10.42 17.24 10.39 17.05C10.28 16.21 9.9 15.43 9.23 14.76C8.55 14.08 7.72 13.68 6.87 13.57C6.67 13.55 6.46 13.55 6.27 13.56C6.38 13.25 6.55 12.96 6.79 12.72L8.45 10.82C11.03 7.59 16.22 3.73 20.06 2.19C20.64 1.95 21.22 2.11 21.59 2.48C21.97 2.85 22.13 3.44 21.81 3.94Z"/><path d="M10.43 17.62C10.43 18.72 10.01 19.77 9.21 20.57C8.6 21.18 7.78 21.6 6.78 21.73L4.33 21.99C2.99 22.14 1.84 20.99 1.99 19.64L2.26 17.18C2.5 14.99 4.33 13.59 6.27 13.56C6.46 13.55 6.67 13.55 6.87 13.57C7.72 13.68 8.55 14.08 9.23 14.76C9.9 15.43 10.28 16.21 10.39 17.05C10.42 17.24 10.43 17.44 10.43 17.62Z"/></svg>