<svg xmlns="http://www.w3.org/2000/svg" width="24" height="24" viewBox="0 0 24 24" fill="none" stroke="white" stroke-width="2" stroke-linecap="round" stroke-linejoin="round"><circle cx="13.5" cy="6.5" r="2.5"></circle><circle cx="17.5" cy="10.5" r="2.5"></circle><circle cx="8.5" cy="7.5" r="2.5"></circle><circle cx="6.5" cy="12.5" r="2.5"></circle><path d="M12 2C6.48 2 2 6.48 2 12s4.48 10 10 10c.84 0 1.5-.66 1.5-1.5 0-.37-.15-.71-.39-1.01-.23-.29-.39-.63-.39-1.01 0-.84.66-1.5 1.5-1.5H16c3.31 0 6-2.69 6-6 0-4.97-4.03-9-9-9z"></path></svg>
