<svg width="24" height="24" viewBox="0 0 24 24" fill="#fff" xmlns="http://www.w3.org/2000/svg">
<path d="M12 2C6.49 2 2 6.49 2 12C2 17.51 6.49 22 12 22C17.51 22 22 17.51 22 12C22 6.49 17.51 2 12 2ZM16.92 12.75H12.75V16.92C12.75 17.33 12.41 17.67 12 17.67C11.59 17.67 11.25 17.33 11.25 16.92V12.75H7.08C6.67 12.75 6.33 12.41 6.33 12C6.33 11.59 6.67 11.25 7.08 11.25H11.25V7.08C11.25 6.67 11.59 6.33 12 6.33C12.41 6.33 12.75 6.67 12.75 7.08V11.25H16.92C17.33 11.25 17.67 11.59 17.67 12C17.67 12.41 17.33 12.75 16.92 12.75Z"/>
</svg>