<svg width="24" height="24" viewBox="0 0 24 24" fill="#fff" xmlns="http://www.w3.org/2000/svg"><path d="M18.47 16.83L18.86 19.99C18.96 20.82 18.07 21.4 17.36 20.97L13.9 18.91C13.66 18.91 13.43 18.89 13.2 18.86C13.78 18.13 14.12 17.22 14.12 16.22C14.12 13.77 11.92 11.79 9.22 11.79C8.14 11.79 7.15 12.11 6.35 12.64C6.32 12.41 6.31 12.17 6.31 11.93C6.31 8.1 9.67 5 13.81 5C17.95 5 21.31 8.1 21.31 11.93C21.31 14.16 20.16 16.12 18.47 16.83Z"/><path d="M14.12 16.22C14.12 17.22 13.78 18.13 13.2 18.86C12.41 19.88 11.15 20.55 9.72 20.65L7.47 22.07C7.01 22.36 6.42 21.96 6.47 21.43L6.68 19.56C5.21 18.72 4.32 17.32 4.32 15.72C4.32 14.07 5.27 12.63 6.82 11.79C7.62 11.26 8.61 10.94 9.69 10.94C12.39 10.94 14.59 12.92 14.59 15.37" opacity="0.7"/></svg>