<svg width="24" height="24" viewBox="0 0 24 24" fill="#fff" xmlns="http://www.w3.org/2000/svg">
<path d="M12 16.33C14.39 16.33 16.33 14.39 16.33 12C16.33 9.61 14.39 7.67 12 7.67C9.61 7.67 7.67 9.61 7.67 12C7.67 14.39 9.61 16.33 12 16.33Z"/>
<path d="M21.02 14.83C20.67 15.53 20.16 16.11 19.55 16.54C19.17 16.82 18.93 17.24 18.88 17.71C18.83 18.24 18.56 18.73 18.13 19.05C17.62 19.44 17 19.67 16.35 19.69C15.93 19.71 15.54 19.92 15.28 20.26C14.83 20.84 14.2 21.25 13.5 21.42C12.51 21.67 11.49 21.67 10.5 21.42C9.8 21.25 9.17 20.84 8.72 20.26C8.46 19.92 8.07 19.71 7.65 19.69C7 19.67 6.38 19.44 5.87 19.05C5.44 18.73 5.17 18.24 5.12 17.71C5.07 17.24 4.83 16.82 4.45 16.54C3.84 16.11 3.33 15.53 2.98 14.83C2.5 13.87 2.5 12.71 2.98 11.75L3 11.71"/>
<path d="M15.58 3.45C15.47 3.16 15.33 2.89 15.16 2.64C14.85 2.18 14.4 1.83 13.89 1.64C13.29 1.42 12.65 1.31 12 1.31C11.35 1.31 10.71 1.42 10.11 1.64C9.6 1.83 9.15 2.18 8.84 2.64C8.67 2.89 8.53 3.16 8.42 3.45"/>
</svg>
