<svg xmlns="http://www.w3.org/2000/svg" viewBox="0 0 24 24" width="24" height="24" color="currentColor" fill="none" stroke="currentColor" stroke-width="1.5" stroke-linecap="round" stroke-linejoin="round">
  <path d="M4 8V6C4 4.89543 4.89543 4 6 4H8" stroke-dasharray="2 2" />
  <path d="M12 4H14" stroke-dasharray="2 2" />
  <path d="M18 4H20C21.1046 4 22 4.89543 22 6V8" stroke-dasharray="2 2" />
  <path d="M22 12V14" stroke-dasharray="2 2" />
  <path d="M22 18V20C22 21.1046 21.1046 22 20 22H18" stroke-dasharray="2 2" />
  <path d="M14 22H12" stroke-dasharray="2 2" />
  <path d="M8 22H6C4.89543 22 4 21.1046 4 20V18" stroke-dasharray="2 2" />
  <path d="M4 14V12" stroke-dasharray="2 2" />
  <path d="M8 8L16 16" />
  <path d="M16 8L8 16" />
</svg>
