<svg width="24" height="24" viewBox="0 0 24 24" fill="#fff" xmlns="http://www.w3.org/2000/svg">
<path d="M16.19 2H7.81C4.17 2 2 4.17 2 7.81V16.18C2 19.83 4.17 22 7.81 22H16.18C19.83 22 22 19.83 22 16.19V7.81C22 4.17 19.83 2 16.19 2ZM8 17.25C8 17.66 7.66 18 7.25 18C6.84 18 6.5 17.66 6.5 17.25V6.75C6.5 6.34 6.84 6 7.25 6C7.66 6 8 6.34 8 6.75V17.25ZM12.75 17.25C12.75 17.66 12.41 18 12 18C11.59 18 11.25 17.66 11.25 17.25V6.75C11.25 6.34 11.59 6 12 6C12.41 6 12.75 6.34 12.75 6.75V17.25ZM17.5 17.25C17.5 17.66 17.16 18 16.75 18C16.34 18 16 17.66 16 17.25V6.75C16 6.34 16.34 6 16.75 6C17.16 6 17.5 6.34 17.5 6.75V17.25Z"/>
</svg>