<svg width="24" height="24" viewBox="0 0 24 24" fill="#fff" xmlns="http://www.w3.org/2000/svg">
<path d="M12 12.75C11.59 12.75 11.25 12.41 11.25 12V2C11.25 1.59 11.59 1.25 12 1.25C12.41 1.25 12.75 1.59 12.75 2V12C12.75 12.41 12.41 12.75 12 12.75Z"/>
<path d="M12 22.75C6.07 22.75 1.25 17.93 1.25 12C1.25 8.37 3.13 5.04 6.21 3.16C6.56 2.95 7.02 3.05 7.24 3.41C7.45 3.77 7.35 4.22 6.99 4.43C4.34 6.06 2.75 8.92 2.75 12C2.75 17.1 6.9 21.25 12 21.25C17.1 21.25 21.25 17.1 21.25 12C21.25 8.92 19.66 6.06 17.01 4.44C16.65 4.22 16.55 3.77 16.76 3.42C16.98 3.06 17.43 2.96 17.79 3.17C20.87 5.05 22.75 8.38 22.75 12C22.75 17.93 17.93 22.75 12 22.75Z"/>
</svg>
