<svg width="24" height="24" viewBox="0 0 24 24" fill="#fff" xmlns="http://www.w3.org/2000/svg">
<path d="M16.19 2H7.81C4.17 2 2 4.17 2 7.81V16.18C2 19.83 4.17 22 7.81 22H16.18C19.83 22 22 19.83 22 16.19V7.81C22 4.17 19.83 2 16.19 2ZM16.88 9.72L14.34 12.26C14.19 12.41 14 12.48 13.81 12.48C13.62 12.48 13.43 12.41 13.28 12.26C12.99 11.97 12.99 11.49 13.28 11.2L14.44 10.04H8.5C8.09 10.04 7.75 9.7 7.75 9.29C7.75 8.88 8.09 8.54 8.5 8.54H14.44L13.28 7.38C12.99 7.09 12.99 6.61 13.28 6.32C13.57 6.03 14.05 6.03 14.34 6.32L16.88 8.86C17.17 9.15 17.17 9.43 16.88 9.72ZM15.5 15.46H9.56L10.72 16.62C11.01 16.91 11.01 17.39 10.72 17.68C10.57 17.83 10.38 17.9 10.19 17.9C10 17.9 9.81 17.83 9.66 17.68L7.12 15.14C6.83 14.85 6.83 14.37 7.12 14.08L9.66 11.54C9.95 11.25 10.43 11.25 10.72 11.54C11.01 11.83 11.01 12.31 10.72 12.6L9.56 13.76H15.5C15.91 13.76 16.25 14.1 16.25 14.51C16.25 14.92 15.91 15.46 15.5 15.46Z"/>
</svg>