<svg width="24" height="24" viewBox="0 0 24 24" fill="#fff" xmlns="http://www.w3.org/2000/svg">
<path d="M15.24 2H8.76C5.34 2 4.02 3.58 4.01 6.41L4 10.91C4 11.32 4.34 11.66 4.75 11.66C5.16 11.66 5.5 11.32 5.5 10.91L5.51 6.41C5.51 4.35 6.17 3.5 8.76 3.5H15.24C17.83 3.5 18.49 4.35 18.49 6.41V17.59C18.49 19.65 17.82 20.5 15.24 20.5H8.76C6.17 20.5 5.51 19.65 5.51 17.59V16C5.51 15.59 5.17 15.25 4.76 15.25C4.35 15.25 4.01 15.59 4.01 16V17.59C4.02 20.42 5.34 22 8.76 22H15.24C18.66 22 19.99 20.42 19.99 17.59V6.41C19.99 3.58 18.66 2 15.24 2Z"/>
<path d="M15 11.25H7.62L9.2 9.81C9.51 9.53 9.54 9.06 9.26 8.75C8.98 8.44 8.51 8.41 8.2 8.69L5.2 11.44C5.18 11.46 5.17 11.47 5.16 11.49C5.13 11.53 5.1 11.57 5.08 11.61C5.06 11.65 5.04 11.7 5.03 11.74C5.02 11.79 5.01 11.83 5.01 11.88C5 11.92 5 11.96 5 12C5 12.04 5 12.08 5.01 12.12C5.01 12.17 5.02 12.21 5.03 12.26C5.04 12.3 5.06 12.35 5.08 12.39C5.1 12.43 5.13 12.47 5.16 12.51C5.17 12.53 5.18 12.54 5.2 12.56L8.2 15.31C8.37 15.46 8.59 15.54 8.8 15.54C9.05 15.54 9.29 15.44 9.47 15.25C9.75 14.94 9.72 14.47 9.41 14.19L7.62 12.75H15C15.41 12.75 15.75 12.41 15.75 12C15.75 11.59 15.41 11.25 15 11.25Z"/>
</svg>
