<svg width="24" height="24" viewBox="0 0 24 24" fill="#fff" xmlns="http://www.w3.org/2000/svg">
<path d="M9.5 2C6.46 2 4 4.46 4 7.5C4 10.08 5.72 12.23 8.07 12.87L4.33 21.1C4.14 21.52 4.46 22 4.92 22H7.5C7.78 22 8.04 21.84 8.16 21.58L9.5 18.63L10.84 21.58C10.96 21.84 11.22 22 11.5 22H14.08C14.54 22 14.86 21.52 14.67 21.1L10.93 12.87C13.28 12.23 15 10.08 15 7.5C15 4.46 12.54 2 9.5 2ZM9.5 11C7.57 11 6 9.43 6 7.5C6 5.57 7.57 4 9.5 4C11.43 4 13 5.57 13 7.5C13 9.43 11.43 11 9.5 11Z"/>
<path d="M16 4.5C15.45 4.5 15 4.95 15 5.5C15 6.05 15.45 6.5 16 6.5H21C21.55 6.5 22 6.05 22 5.5C22 4.95 21.55 4.5 21 4.5H16Z"/>
<path d="M18 8.5C17.45 8.5 17 8.95 17 9.5C17 10.05 17.45 10.5 18 10.5H21C21.55 10.5 22 10.05 22 9.5C22 8.95 21.55 8.5 21 8.5H18Z"/>
</svg>
