<svg width="24" height="24" viewBox="0 0 24 24" fill="none" xmlns="http://www.w3.org/2000/svg">
  <path d="M19.5 5.5L18.8803 15.5251C18.7219 18.0864 18.6428 19.3671 17.7811 20.1835C16.9195 21 15.6353 21 13.067 21H10.933C8.36467 21 7.08052 21 6.21886 20.1835C5.3572 19.3671 5.27806 18.0864 5.11966 15.5251L4.5 5.5" stroke="#ffffff" stroke-width="1.6" stroke-linejoin="round"/>
  <path d="M3 5.5H21M9 11.5V15M15 11.5V15" stroke="#ffffff" stroke-width="1.6" stroke-linecap="round"/>
  <path d="M10.1818 3H13.8182C15.5325 3 16.3896 3 16.9221 3.58579C17.4545 4.17157 17.4545 5.11438 17.4545 7H6.54545C6.54545 5.11438 6.54545 4.17157 7.07792 3.58579C7.61039 3 8.46753 3 10.1818 3Z" stroke="#ffffff" stroke-width="1.6" stroke-linejoin="round"/>
</svg>